<?xml version="1.0" encoding="UTF-8" standalone="no"?>
<!-- Created with Inkscape (http://www.inkscape.org/) -->

<svg
   xmlns:dc="http://purl.org/dc/elements/1.1/"
   xmlns:cc="http://creativecommons.org/ns#"
   xmlns:rdf="http://www.w3.org/1999/02/22-rdf-syntax-ns#"
   xmlns:svg="http://www.w3.org/2000/svg"
   xmlns="http://www.w3.org/2000/svg"
   xmlns:sodipodi="http://sodipodi.sourceforge.net/DTD/sodipodi-0.dtd"
   xmlns:inkscape="http://www.inkscape.org/namespaces/inkscape"
   width="75.495399mm"
   height="118.71774mm"
   viewBox="0 0 75.495399 118.71774"
   version="1.1"
   id="svg8"
   inkscape:version="0.92.4 (5da689c313, 2019-01-14)"
   sodipodi:docname="Ganadeel_Symbol.svg">
  <defs
     id="defs2" />
  <sodipodi:namedview
     id="base"
     pagecolor="#ffffff"
     bordercolor="#666666"
     borderopacity="1.0"
     inkscape:pageopacity="0.0"
     inkscape:pageshadow="2"
     inkscape:zoom="0.5"
     inkscape:cx="646.03553"
     inkscape:cy="203.35517"
     inkscape:document-units="mm"
     inkscape:current-layer="layer1"
     showgrid="false"
     inkscape:window-width="1920"
     inkscape:window-height="1017"
     inkscape:window-x="-8"
     inkscape:window-y="-8"
     inkscape:window-maximized="1" />
  <metadata
     id="metadata5">
    <rdf:RDF>
      <cc:Work
         rdf:about="">
        <dc:format>image/svg+xml</dc:format>
        <dc:type
           rdf:resource="http://purl.org/dc/dcmitype/StillImage" />
        <dc:title></dc:title>
      </cc:Work>
    </rdf:RDF>
  </metadata>
  <g
     inkscape:label="Layer 1"
     inkscape:groupmode="layer"
     id="layer1"
     transform="translate(-62.128686,-64.918135)">
    <g
       id="g5536"
       transform="matrix(1.6216187,0,0,1.6216187,-142.45125,-90.982617)">
      <path
         sodipodi:nodetypes="cccccccccc"
         inkscape:connector-curvature="0"
         id="path4654"
         d="m 136.99844,156.17512 c -0.61372,1.12875 -1.35191,1.5479 -1.35191,1.5479 -1.55351,1.62034 -2.26696,3.85478 -2.26696,3.85478 -0.7684,0.73499 -0.5903,1.67362 -0.5903,1.67362 11.19754,12.04799 31.04129,3.07106 30.09635,-0.14174 -0.0245,-0.014 -0.16553,-0.91806 -0.75595,-1.37016 0,0 -0.0852,-1.54102 -1.98438,-3.59078 0,0 -1.19166,-0.48236 -1.30273,-1.87419 -1.99503,0.97192 -9.82676,2.93941 -15.45223,2.1 -2.15844,-0.20106 -5.40101,-1.25534 -6.39189,-2.19943 z"
         style="fill:#ff6500;fill-opacity:0.75294118;stroke:none;stroke-width:1.5;stroke-linecap:butt;stroke-linejoin:miter;stroke-miterlimit:4;stroke-dasharray:none;stroke-opacity:0.94117647" />
      <g
         style="fill:#ff6600;fill-opacity:0.71859292"
         transform="translate(64.51115,72.682317)"
         id="g4614">
        <g
           style="fill:#ff6600;fill-opacity:0.75175877"
           id="g4758">
          <path
             inkscape:connector-curvature="0"
             d="m 89.110679,42.216871 c 0.130892,-1.804994 0.14488,-3.618709 0.166732,-5.429031 0.0154,-2.044287 -0.212759,-3.976595 -0.787892,-5.905921 -0.411104,-1.29229 -1.027779,-2.468886 -1.623116,-3.651286 -0.249801,-0.48143 -0.463777,-0.987874 -0.671827,-1.495359 -0.138636,-0.338167 -0.245184,-0.650965 -0.451347,-0.93958 0.817509,0.537986 1.66125,1.024745 2.452528,1.613949 0.06556,0.04882 0.04155,0.175271 0.06613,0.261502 0.0473,0.16591 0.09687,0.330974 0.149448,0.494692 0.250473,0.779879 0.543546,1.536579 0.837038,2.295165 0.710184,1.690267 1.578229,3.277032 2.398088,4.894592 0.683583,1.341876 1.426882,2.633254 2.241997,3.869448 0.881012,1.349941 1.926439,2.520319 2.995838,3.660484 1.139243,1.211734 2.319385,2.368926 3.420474,3.629001 0.95543,1.00383 1.80501,2.129129 2.62581,3.28145 0.70676,1.082383 1.41548,2.165713 2.0516,3.307172 0.65165,1.199305 1.25688,2.430894 1.77284,3.71771 0.50103,1.268275 0.87596,2.591464 1.13991,3.95224 0.25501,1.489356 0.28274,3.012317 0.30662,4.525636 0.02,1.843302 -0.3711,3.632823 -0.82751,5.38178 -0.50292,1.821871 -1.30214,3.503487 -2.19096,5.101786 -0.91101,1.626046 -2.14445,2.923039 -3.41867,4.146191 -1.34029,1.268037 -2.870506,2.203466 -4.394424,3.125694 -1.486098,0.893654 -3.029955,1.616668 -4.63841,2.140377 -3.970224,1.21964 -8.820644,1.818577 -12.635153,1.626758 C 77.25359,85.514865 74.65886,84.988308 72.355149,83.4481 69.483655,81.507723 70.344953,82.212781 69.012729,81.080584 68.175973,80.329928 67.38211,79.520933 66.612193,78.679046 51.504854,61.547369 75.03658,39.805149 82.010301,28.187662 l 0.635229,2.631397 C 76.076509,42.43905 59.011407,56.085063 65.063081,71.163144 c 0.342664,0.810238 0.657016,1.636975 1.025363,2.432453 0.505614,1.045847 1.137735,1.998046 1.810743,2.903979 0.708615,0.89104 1.453234,1.73958 2.241994,2.533814 4.899025,4.233351 9.631698,4.41108 14.966778,4.087085 1.794282,-0.102009 3.589015,-0.265036 5.341144,-0.758793 0.600307,-0.188511 0.952362,-0.285054 1.538676,-0.524634 1.054425,-0.430859 2.061985,-1.002141 3.07132,-1.556473 1.509641,-0.908251 3.028265,-1.824556 4.359857,-3.071029 1.255264,-1.198738 2.477534,-2.462179 3.373854,-4.061419 0.87545,-1.572085 1.66267,-3.227322 2.15193,-5.022433 0.44317,-1.72205 0.82025,-3.482813 0.77838,-5.296393 -0.0302,-1.495167 -0.0658,-3.000592 -0.3389,-4.467782 -0.2809,-1.338571 -0.65823,-2.643454 -1.16583,-3.88975 -0.52626,-1.269677 -1.13141,-2.491716 -1.78797,-3.675406 -0.64855,-1.124135 -1.34625,-2.209885 -2.06508,-3.27364 C 99.540035,46.3856 98.686568,45.27827 97.738905,44.276992 96.628663,43.03216 95.453776,41.871829 94.319084,40.65809 93.247219,39.504505 92.21317,38.304022 91.333128,36.940424 c -0.809027,-1.246386 -1.540584,-2.554203 -2.222359,-3.900947 -0.82485,-1.62082 -1.681552,-3.223167 -2.381523,-4.925549 -0.297196,-0.770288 -0.61391,-1.541275 -0.847167,-2.342714 -0.05364,-0.184287 -0.111455,-0.369216 -0.137112,-0.561562 -0.01963,-0.147197 -0.119457,-0.489508 0.0026,-0.446927 0.902253,0.314779 1.71931,0.898388 2.578965,1.347579 0.3947,0.79493 0.657053,1.674692 1.09133,2.445701 0.601212,1.189704 1.191873,2.395829 1.583917,3.705614 0.530693,1.936428 0.757859,3.958598 0.728882,5.993137 -0.01953,1.829331 -0.03555,3.659858 -0.123507,5.486826 l -2.496471,-1.524711 z"
             id="path4582"
             style="opacity:1;fill:#ff6600;fill-opacity:0.75175877;fill-rule:nonzero;stroke:none;stroke-width:0.17845111;stroke-linecap:butt;stroke-linejoin:miter;stroke-miterlimit:4;stroke-dasharray:none;stroke-opacity:1;paint-order:markers stroke fill"
             sodipodi:nodetypes="ccccscccccccccccccccccccccccccccccccccccccccccccccccccccccccc" />
          <g
             transform="matrix(1.2003283,0,0,1.543849,-15.306046,-38.571971)"
             id="g4763">
            <path
               style="opacity:1;fill:#ff6600;fill-opacity:0.75175877;fill-rule:nonzero;stroke:none;stroke-width:0.14778063;stroke-linecap:butt;stroke-linejoin:miter;stroke-miterlimit:4;stroke-dasharray:none;stroke-opacity:1;paint-order:markers stroke fill"
               id="path4588"
               d="m 90.163169,61.766553 c 0.967121,-0.07533 1.937524,-0.121104 2.907628,-0.114976 0.400811,0.02649 0.806527,0.04238 1.195507,0.153268 1.877648,0.565544 4.459301,2.593805 3.247747,4.547658 -0.516095,0.633835 -1.17428,1.132497 -1.832253,1.60929 -0.643084,0.450578 -1.317807,0.851136 -2.019411,1.202848 -0.463879,0.249394 -0.96877,0.405563 -1.463133,0.581689 -0.512619,0.170834 -1.023703,0.34978 -1.546632,0.48701 -0.06822,0.01874 -0.136434,0.03749 -0.204651,0.05624 l -2.08086,-1.423713 v 0 c 0.07061,-0.02159 0.141232,-0.0432 0.211847,-0.06479 0.522617,-0.11695 1.027935,-0.296816 1.535229,-0.465895 0.489676,-0.164608 0.98574,-0.326874 1.449685,-0.554637 0.700549,-0.329866 1.368095,-0.721402 2.006343,-1.160105 0.637078,-0.455466 1.077666,-0.755192 1.57869,-1.362914 0.674728,-1.918973 -1.493713,-2.159809 -2.927461,-2.030064 z"
               inkscape:connector-curvature="0"
               sodipodi:nodetypes="cccccccccccccccccc" />
            <path
               style="opacity:1;fill:#ff6600;fill-opacity:0.75175877;fill-rule:nonzero;stroke:none;stroke-width:0.15194191;stroke-linecap:butt;stroke-linejoin:miter;stroke-miterlimit:4;stroke-dasharray:none;stroke-opacity:1;paint-order:markers stroke fill"
               id="path4590"
               d="m 83.214203,57.90306 c 0.518965,0.455629 1.067043,0.876359 1.588592,1.32952 0.404354,0.35567 0.788338,0.733425 1.170667,1.112385 0.330467,0.295236 0.597956,0.64527 0.831855,1.019122 0.235455,0.27794 0.27233,0.633855 0.376225,0.966695 0.106254,0.342766 0.140676,0.699809 0.161346,1.0562 0.06314,0.408075 -0.07456,0.745804 -0.248146,1.104237 -0.156512,0.287768 -0.369487,0.532913 -0.58318,0.778056 -0.184095,0.18839 -0.40989,0.32965 -0.618773,0.489011 -0.202712,0.184217 -0.427418,0.340568 -0.648321,0.501632 -0.22077,0.20067 -0.468907,0.357038 -0.728237,0.501402 -0.28875,0.163809 -0.576282,0.33004 -0.879476,0.465799 -0.189632,0.07469 -0.378388,0.108743 -0.562194,2.44e-4 C 81.0486,65.653971 79.274372,63.009448 78.593444,60.74322 77.27569,58.435411 76.38039,55.804264 75.518497,53.485774 l 1.389417,0.85911 c 0,0 1.63354,1.877758 2.456732,3.269607 0.411513,1.037526 0.659761,2.106664 1.079103,3.054155 0.166438,0.3941 0.370163,0.765457 0.497394,1.175018 0.170217,0.414217 0.252784,0.857048 0.348319,1.292869 0.939294,5.376737 -0.857082,8.280281 -5.671473,8.29648 -4.829932,-0.714151 -5.477217,-5.793312 -3.544118,-8.698911 1.909281,-2.730558 4.854969,-3.357028 7.577828,-4.799005 l 2.220756,0.892175 v 0 c -1.712739,0.902309 -3.443855,1.770408 -5.126866,2.728169 -1.690098,1.13381 -3.55522,2.058006 -3.970155,4.010961 -0.166894,5.406049 6.239764,4.807656 7.057288,2.064215 0.05323,-0.338295 0.168108,-1.062587 0.164406,-1.404388 -0.0041,-0.351864 -0.01055,-0.705512 -0.07553,-1.052524 -4.090214,-14.739502 -4.121403,-12.704483 1.728231,-1.254412 0.435236,0.847437 0.735261,1.55662 1.402568,0.94471 0.224591,-0.151714 0.447428,-0.311289 0.644305,-0.498203 0.200334,-0.140193 0.394282,-0.291155 0.58842,-0.438141 0.196102,-0.230433 0.408022,-0.44734 0.552956,-0.717091 0.155815,-0.324509 0.244869,-0.620476 0.183363,-0.986125 -0.02805,-0.341587 -0.07865,-0.680079 -0.18547,-1.007099 -0.08608,-0.324363 -0.194433,-0.628056 -0.409491,-0.893299 -0.252237,-0.350214 -0.521089,-0.681882 -0.846614,-0.96863 -0.381535,-0.374501 -0.766495,-0.745955 -1.172514,-1.094118 -0.527709,-0.449573 -1.075369,-0.875083 -1.5948,-1.334366 l 2.401643,0.976114 z"
               inkscape:connector-curvature="0"
               sodipodi:nodetypes="ccccccccccccccccccccccccccccccccccccccccccc" />
            <path
               style="opacity:1;fill:#ff6600;fill-opacity:0.75175877;fill-rule:nonzero;stroke:none;stroke-width:0.11192523;stroke-linecap:butt;stroke-linejoin:miter;stroke-miterlimit:4;stroke-dasharray:none;stroke-opacity:1;paint-order:markers stroke fill"
               id="path4592"
               d="m 79.261249,75.137614 c 0.471929,0.234439 0.676615,0.311147 1.131183,0.01262 0.34117,-0.303785 0.616097,-0.669807 0.954433,-0.976978 0.304127,-0.266676 0.544555,-0.274537 0.926005,-0.217051 0.357882,0.06633 0.713138,0.200401 1.082829,0.147913 0.08667,-0.01231 0.17037,-0.0403 0.255556,-0.06045 0.63346,-0.259038 1.075332,-0.795619 1.527763,-1.2858 0.312367,-0.333457 0.158466,-0.169781 0.461643,-0.491086 0,0 1.619536,0.986689 1.619536,0.986689 v 0 c -0.304429,0.318642 -0.150275,0.156051 -0.462336,0.487892 -0.476362,0.512771 -0.935718,1.066447 -1.578887,1.376673 -0.541702,0.176146 -0.843819,0.148288 -1.38054,-0.0145 -0.332865,-0.06084 -0.540982,-0.158911 -0.83129,0.07678 -0.353448,0.30145 -0.630588,0.674649 -0.968509,0.992168 -0.449357,0.338297 -0.719004,0.414564 -1.244472,0.159342 0,0 -1.492914,-1.194191 -1.492914,-1.194191 z"
               inkscape:connector-curvature="0" />
          </g>
          <path
             inkscape:connector-curvature="0"
             d="m 79.655893,26.638545 c 0.641077,-0.319633 1.280927,-0.641615 1.925039,-0.955215 0.618041,-0.308562 1.25303,-0.581146 1.879495,-0.871905 0.617534,-0.275529 1.212521,-0.601271 1.729292,-1.03972 0.242867,-0.212328 0.130498,-0.106635 0.339011,-0.315052 0,0 2.402488,1.470421 2.402488,1.470421 v 0 c -0.2217,0.226516 -0.103788,0.115748 -0.354981,0.330976 -0.52728,0.463878 -1.137846,0.812884 -1.776957,1.101029 -0.62339,0.293843 -1.256149,0.56733 -1.875507,0.869307 -0.641483,0.312298 -1.285912,0.620371 -1.913472,0.959276 0,0 -2.354408,-1.549117 -2.354408,-1.549117 z"
             id="path4594"
             style="opacity:1;fill:#ff6600;fill-opacity:0.75175877;fill-rule:nonzero;stroke:none;stroke-width:0.16500001;stroke-linecap:butt;stroke-linejoin:miter;stroke-miterlimit:4;stroke-dasharray:none;stroke-opacity:1;paint-order:markers stroke fill" />
          <path
             sodipodi:nodetypes="ccccccc"
             inkscape:connector-curvature="0"
             id="path6263"
             d="m 81.596328,45.048208 c -2.524752,-0.62179 -0.968332,-6.50992 -0.22306,-6.71931 l 0.26904,-0.0319 -0.01,0.52013 c 0.49516,1.03938 -0.972362,2.7304 0.0343,3.29757 2.60772,-1.83132 1.4588,3.28908 -0.0708,2.93348 z"
             style="fill:#ff6500;fill-opacity:0.75294118;stroke-width:0.05263518" />
          <path
             sodipodi:nodetypes="ccccccccccccc"
             inkscape:connector-curvature="0"
             id="path6263-7"
             d="m 91.579385,78.317025 c -0.173916,-0.314075 -0.764461,-1.102444 -0.3526,-2.991365 0.694526,-0.961244 1.939076,-4.137344 3.168438,-4.125988 0.301188,0.05602 0.379891,0.221258 0.41679,0.371539 0.01972,1.715799 -1.734825,3.136445 -1.903804,4.549005 0,0.151219 0.01106,0.167368 0.131823,0.191516 0.07253,0.01451 0.175335,0.02637 0.228504,0.02637 0.5173,0.03422 1.015021,-0.523552 1.11614,-0.90999 0.02933,-0.113118 0.157302,-0.200132 0.250095,-0.18682 0.669978,0.138011 0.736002,1.479201 0.718786,2.017844 -0.03174,0.191797 -0.101873,0.347568 -0.186507,0.519344 -0.329823,0.811194 -1.17092,1.520403 -2.044123,1.577042 -0.588285,-0.0464 -1.073255,-0.332115 -1.543542,-1.038495 z"
             style="fill:#ff6500;fill-opacity:0.75294118;stroke-width:0.04218482" />
          <path
             sodipodi:nodetypes="ccccccccccccccccccccccccccccccccccc"
             inkscape:connector-curvature="0"
             id="path6263-5"
             d="m 84.769055,57.678438 c -0.30745,-0.0273 -1.18315,-0.23973 -1.29459,-0.53366 -0.28507,-0.56459 -0.29812,-1.17055 -0.21074,-1.75272 -0.0148,-0.54667 0.2078,-1.06192 0.316,-1.51066 0.0539,-0.28574 0.46308,-0.6955 0.67812,-0.69741 0.22227,-0.008 0.26809,0.69397 0.25302,0.88926 -0.0806,0.3359 -0.035,1.54486 0.20472,1.58459 0.10508,-0.0991 0.43462,-0.1566 0.44559,-0.30846 0.27402,-0.15344 0.71028,0.0192 0.76747,0.28634 0.31563,0.88367 -0.44677,1.85137 -1.15959,2.04272 z m 4.37923,-5.70339 c -0.37743,-0.23821 0.0302,-1.16748 0.19875,-1.40376 0.21841,-0.52185 0.58175,-0.59749 1.01908,-0.59805 0.2976,-0.048 0.73498,0.25824 0.74283,0.15791 0,-0.0289 0.0474,-0.1 0.10527,-0.15791 0.15995,-0.42245 0.37018,-0.75623 0.56566,-0.98635 0.0797,-0.0938 0.19229,-0.22973 0.25019,-0.30211 0.24231,-0.23035 0.54503,-0.28578 0.75556,-0.26504 1.58997,0.49194 -0.37445,2.33329 -0.46158,3.00871 0.0556,0.36904 -0.27442,0.81622 -0.3203,1.1028 -0.81894,1.27474 -2.47115,-0.53756 -2.85546,-0.5562 z m 7.48736,0.79559 c -0.38557,-0.19007 -0.94598,-0.42133 -1.26324,-1.00781 -0.61752,-1.14192 0.53084,-1.99674 0.57898,-2.86861 0.0289,-0.20327 0.22429,-0.39415 0.37331,-0.39477 l 0.1966,0.0752 0.007,0.20115 c -0.006,0.15198 -0.008,0.64492 -0.005,1.09541 0.0351,0.27534 -0.11196,1.03538 0.32815,1.04947 0.19344,-0.0759 0.42069,-0.30475 0.49024,-0.51319 0.15711,-0.27107 0.55722,0.0338 0.60929,0.17107 0.19422,0.31444 0.26192,0.60274 0.28268,0.90796 0.0491,0.67454 -0.34165,1.25993 -1.08603,1.31392 -0.36814,0.0219 -0.51253,0.0136 -0.51253,-0.0298 z"
             style="fill:#ff6500;fill-opacity:0.75294118;stroke-width:0.05263518" />
          <path
             sodipodi:nodetypes="cccscc"
             inkscape:connector-curvature="0"
             id="path6263-3"
             d="m 70.354378,76.41896 c -0.0785,-0.8341 0.10389,-1.76274 0.13548,-2.48773 -0.003,-0.35604 0.19716,-1.4722 0.48038,-1.47306 0.53975,0.32047 0.39351,1.86361 0.6053,2.29438 0.37485,1.35452 2.09869,-0.29208 2.09129,1.52167 0.36186,2.29129 -3.14721,2.19999 -3.31245,0.14474 z"
             style="fill:#ff6500;fill-opacity:0.75294118;stroke-width:0.05263518" />
          <path
             sodipodi:nodetypes="csscccccccccccc"
             inkscape:connector-curvature="0"
             id="path6263-7-6"
             d="m 73.046924,53.504602 c -0.02249,-0.02709 -0.05969,-0.04932 -0.08261,-0.04932 -0.869281,-0.541337 -1.16202,-1.85209 -1.175806,-2.816972 0.03921,-0.117312 0.181157,-0.626322 0.270873,-0.696641 0.423675,-0.707534 0.557429,-0.802688 0.647956,-1.143685 0,-0.0065 0.04511,-0.108401 0.100273,-0.22697 0.120521,-0.259103 0.202395,-0.334983 0.361484,-0.334983 0.208013,0 0.237787,0.196847 0.101103,0.668501 -0.04692,0.161862 -0.08528,0.335948 -0.08528,0.386869 -0.41188,0.760471 -0.198351,1.968189 0.581084,2.04889 0.560897,0.08786 0.616614,-0.435282 1.064333,-0.498685 0.142757,-0.01957 0.166257,-0.01251 0.24629,0.07384 0.525491,0.706188 0.533281,2.363828 -0.28841,2.714449 -0.348962,0.101 -1.452608,0.164027 -1.74129,-0.125297 z"
             style="fill:#ff6500;fill-opacity:0.75294118;stroke-width:0.03411276" />
          <path
             sodipodi:nodetypes="ccccccccccccccccccccccccccccccccccc"
             inkscape:connector-curvature="0"
             id="path6263-5-2"
             d="m 77.547345,77.063553 c -0.30745,-0.0273 -1.18315,-0.239731 -1.29459,-0.533661 -0.28507,-0.56459 -0.29812,-1.17055 -0.21074,-1.75272 -0.0148,-0.54667 0.2078,-1.06192 0.316,-1.51066 0.0539,-0.28574 0.46308,-0.695499 0.67812,-0.69741 0.22227,-0.008 0.26809,0.693971 0.25302,0.88926 -0.0806,0.3359 -0.035,1.54486 0.20472,1.58459 0.10508,-0.0991 0.43462,-0.1566 0.44559,-0.30846 0.27402,-0.15344 0.71028,0.0192 0.76747,0.28634 0.31563,0.88367 -0.44677,1.85137 -1.15959,2.042721 z m 4.37923,-5.703391 c -0.37743,-0.23821 0.0302,-1.16748 0.19875,-1.40376 0.21841,-0.52185 0.58175,-0.59749 1.01908,-0.59805 0.2976,-0.048 0.73498,0.25824 0.74283,0.15791 0,-0.0289 0.0474,-0.1 0.10527,-0.15791 0.15995,-0.42245 0.37018,-0.75623 0.56566,-0.98635 0.0797,-0.0938 0.19229,-0.22973 0.25019,-0.30211 0.24231,-0.23035 0.54503,-0.28578 0.75556,-0.26504 1.58997,0.49194 -0.37445,2.33329 -0.46158,3.00871 0.0556,0.36904 -0.27442,0.81622 -0.3203,1.1028 -0.81894,1.27474 -2.47115,-0.53756 -2.85546,-0.5562 z m 7.48736,0.79559 c -0.38557,-0.19007 -0.94598,-0.42133 -1.26324,-1.00781 -0.61752,-1.14192 0.53084,-1.99674 0.57898,-2.86861 0.0289,-0.20327 0.22429,-0.39415 0.37331,-0.39477 l 0.1966,0.0752 0.007,0.20115 c -0.006,0.15198 -0.008,0.64492 -0.005,1.09541 0.0351,0.27534 -0.11196,1.03538 0.32815,1.04947 0.19344,-0.0759 0.42069,-0.30475 0.49024,-0.51319 0.15711,-0.27107 0.55722,0.0338 0.60929,0.17107 0.19422,0.31444 0.26192,0.60274 0.28268,0.90796 0.0491,0.674541 -0.34165,1.25993 -1.08603,1.31392 -0.36814,0.0219 -0.51253,0.0136 -0.51253,-0.0298 z"
             style="fill:#ff6500;fill-opacity:0.75294118;stroke-width:0.05263518" />
          <path
             sodipodi:nodetypes="csscccccccccccc"
             inkscape:connector-curvature="0"
             id="path6263-7-6-8"
             d="m 98.292975,68.861455 c 0.03199,-0.01471 0.06309,-0.04489 0.06902,-0.06703 0.747878,-0.699553 2.089735,-0.643069 3.025305,-0.406656 0.10317,0.06824 0.55809,0.337089 0.6028,0.441948 0.57377,0.592361 0.63106,0.746186 0.93701,0.921884 0.006,0.0017 0.093,0.07163 0.19328,0.155601 0.21908,0.183475 0.27119,0.282198 0.23001,0.435867 -0.0538,0.200925 -0.25168,0.178736 -0.67189,-0.07536 -0.1442,-0.08721 -0.30243,-0.169324 -0.35161,-0.182503 -0.62796,-0.59467 -1.84979,-0.700998 -2.12947,0.03099 -0.230039,0.519043 0.26086,0.708263 0.20622,1.157138 -0.018,0.142951 -0.0309,0.163823 -0.13507,0.218786 -0.81813,0.32481 -2.421304,-0.09669 -2.547309,-0.981133 -0.0072,-0.363211 0.217526,-1.445567 0.571708,-1.64953 z"
             style="fill:#ff6500;fill-opacity:0.75294118;stroke-width:0.03411276" />
          <path
             sodipodi:nodetypes="csscccccccccccc"
             inkscape:connector-curvature="0"
             id="path6263-7-6-8-3"
             d="m 65.769848,65.269095 c 0.01322,-0.02438 0.01857,-0.0581 0.01186,-0.07486 0.141159,-0.794283 1.013889,-1.392402 1.715431,-1.685195 0.09728,-0.0057 0.511082,-0.05104 0.588794,-0.0061 0.641529,0.102508 0.7503,0.172439 1.026183,0.138725 0.0046,-0.0017 0.09247,0.0013 0.195352,0.0069 0.224784,0.01222 0.304265,0.04985 0.350875,0.166189 0.06097,0.152094 -0.07427,0.231558 -0.459224,0.269805 -0.132107,0.01312 -0.270653,0.03607 -0.307886,0.05098 -0.676786,-0.07837 -1.497382,0.431636 -1.328018,1.02525 0.100092,0.435905 0.498973,0.323368 0.676518,0.632193 0.05616,0.09863 0.05788,0.117886 0.01817,0.201737 -0.362438,0.591183 -1.572321,1.082572 -2.069474,0.584432 -0.176077,-0.225608 -0.545561,-1.014178 -0.418574,-1.310052 z"
             style="fill:#ff6500;fill-opacity:0.75294118;stroke-width:0.02687323" />
          <path
             sodipodi:nodetypes="ccccccc"
             inkscape:connector-curvature="0"
             id="path6263-35"
             d="m 68.324799,59.806294 c -2.524752,-0.62179 -0.968332,-6.50992 -0.22306,-6.71931 l 0.26904,-0.0319 -0.01,0.52013 c 0.49516,1.03938 -0.972362,2.7304 0.0343,3.29757 2.60772,-1.83132 1.4588,3.28908 -0.0708,2.93348 z"
             style="fill:#ff6500;fill-opacity:0.75294118;stroke-width:0.05263518" />
          <path
             inkscape:transform-center-y="-7.8052083"
             inkscape:transform-center-x="1.8520833"
             sodipodi:nodetypes="ccccccc"
             inkscape:connector-curvature="0"
             id="path6263-6"
             d="m 85.249478,49.34364 c -2.08352,-1.555616 1.642347,-6.373337 2.410341,-6.276077 l 0.260235,0.07535 -0.211696,0.475205 c 0.05147,1.15015 -1.95859,2.136468 -1.252139,3.050786 3.11493,-0.671675 0.06329,3.597518 -1.207208,2.674503 z"
             style="fill:#ff6500;fill-opacity:0.75294118;stroke-width:0.05263518" />
        </g>
      </g>
    </g>
  </g>
</svg>
