<?xml version="1.0" encoding="UTF-8" standalone="no"?>
<!-- Created with Inkscape (http://www.inkscape.org/) -->

<svg
   xmlns:dc="http://purl.org/dc/elements/1.1/"
   xmlns:cc="http://creativecommons.org/ns#"
   xmlns:rdf="http://www.w3.org/1999/02/22-rdf-syntax-ns#"
   xmlns:svg="http://www.w3.org/2000/svg"
   xmlns="http://www.w3.org/2000/svg"
   xmlns:sodipodi="http://sodipodi.sourceforge.net/DTD/sodipodi-0.dtd"
   xmlns:inkscape="http://www.inkscape.org/namespaces/inkscape"
   width="75.495399mm"
   height="118.71774mm"
   viewBox="0 0 75.495399 118.71774"
   version="1.1"
   id="svg8"
   inkscape:version="0.92.4 (5da689c313, 2019-01-14)"
   sodipodi:docname="Ganadeel_Symbol2.svg"
   inkscape:export-filename="C:\Users\ibr_a\OneDrive\سطح المكتب\Symbol2.png"
   inkscape:export-xdpi="300"
   inkscape:export-ydpi="300">
  <defs
     id="defs2" />
  <sodipodi:namedview
     id="base"
     pagecolor="#ffffff"
     bordercolor="#666666"
     borderopacity="1.0"
     inkscape:pageopacity="0.0"
     inkscape:pageshadow="2"
     inkscape:zoom="0.5"
     inkscape:cx="468.08054"
     inkscape:cy="226.25401"
     inkscape:document-units="mm"
     inkscape:current-layer="g4763"
     showgrid="false"
     inkscape:window-width="1920"
     inkscape:window-height="1017"
     inkscape:window-x="-8"
     inkscape:window-y="-8"
     inkscape:window-maximized="1" />
  <metadata
     id="metadata5">
    <rdf:RDF>
      <cc:Work
         rdf:about="">
        <dc:format>image/svg+xml</dc:format>
        <dc:type
           rdf:resource="http://purl.org/dc/dcmitype/StillImage" />
        <dc:title></dc:title>
      </cc:Work>
    </rdf:RDF>
  </metadata>
  <g
     inkscape:label="Layer 1"
     inkscape:groupmode="layer"
     id="layer1"
     transform="translate(-62.128686,-64.918135)">
    <g
       id="g5536"
       transform="matrix(1.6216187,0,0,1.6216187,-142.45125,-90.982617)">
      <path
         sodipodi:nodetypes="cccccccccc"
         inkscape:connector-curvature="0"
         id="path4654"
         d="m 136.99844,156.17512 c -0.61372,1.12875 -1.35191,1.5479 -1.35191,1.5479 -1.55351,1.62034 -2.26696,3.85478 -2.26696,3.85478 -0.7684,0.73499 -0.5903,1.67362 -0.5903,1.67362 11.19754,12.04799 31.04129,3.07106 30.09635,-0.14174 -0.0245,-0.014 -0.16553,-0.91806 -0.75595,-1.37016 0,0 -0.0852,-1.54102 -1.98438,-3.59078 0,0 -1.19166,-0.48236 -1.30273,-1.87419 -1.99503,0.97192 -9.82676,2.93941 -15.45223,2.1 -2.15844,-0.20106 -5.40101,-1.25534 -6.39189,-2.19943 z"
         style="fill:#ff6500;fill-opacity:0.75294118;stroke:none;stroke-width:1.5;stroke-linecap:butt;stroke-linejoin:miter;stroke-miterlimit:4;stroke-dasharray:none;stroke-opacity:0.94117647" />
      <g
         style="fill:#ff6600;fill-opacity:0.71859292"
         transform="translate(64.51115,72.682317)"
         id="g4614">
        <g
           style="fill:#ff6600;fill-opacity:0.75175877"
           id="g4758">
          <path
             inkscape:connector-curvature="0"
             d="m 89.110679,42.216871 c 0.130892,-1.804994 0.14488,-3.618709 0.166732,-5.429031 0.0154,-2.044287 -0.212759,-3.976595 -0.787892,-5.905921 -0.411104,-1.29229 -1.027779,-2.468886 -1.623116,-3.651286 -0.249801,-0.48143 -0.463777,-0.987874 -0.671827,-1.495359 -0.138636,-0.338167 -0.245184,-0.650965 -0.451347,-0.93958 0.817509,0.537986 1.66125,1.024745 2.452528,1.613949 0.06556,0.04882 0.04155,0.175271 0.06613,0.261502 0.0473,0.16591 0.09687,0.330974 0.149448,0.494692 0.250473,0.779879 0.543546,1.536579 0.837038,2.295165 0.710184,1.690267 1.578229,3.277032 2.398088,4.894592 0.683583,1.341876 1.426882,2.633254 2.241997,3.869448 0.881012,1.349941 1.926439,2.520319 2.995838,3.660484 1.139243,1.211734 2.319385,2.368926 3.420474,3.629001 0.95543,1.00383 1.80501,2.129129 2.62581,3.28145 0.70676,1.082383 1.41548,2.165713 2.0516,3.307172 0.65165,1.199305 1.25688,2.430894 1.77284,3.71771 0.50103,1.268275 0.87596,2.591464 1.13991,3.95224 0.25501,1.489356 0.28274,3.012317 0.30662,4.525636 0.02,1.843302 -0.3711,3.632823 -0.82751,5.38178 -0.50292,1.821871 -1.30214,3.503487 -2.19096,5.101786 -0.91101,1.626046 -2.14445,2.923039 -3.41867,4.146191 -1.34029,1.268037 -2.870506,2.203466 -4.394424,3.125694 -1.486098,0.893654 -3.029955,1.616668 -4.63841,2.140377 -3.970224,1.21964 -8.820644,1.818577 -12.635153,1.626758 C 77.25359,85.514865 74.65886,84.988308 72.355149,83.4481 69.483655,81.507723 70.344953,82.212781 69.012729,81.080584 68.175973,80.329928 67.38211,79.520933 66.612193,78.679046 51.504854,61.547369 75.03658,39.805149 82.010301,28.187662 l 0.635229,2.631397 C 76.076509,42.43905 59.011407,56.085063 65.063081,71.163144 c 0.342664,0.810238 0.657016,1.636975 1.025363,2.432453 0.505614,1.045847 1.137735,1.998046 1.810743,2.903979 0.708615,0.89104 1.453234,1.73958 2.241994,2.533814 4.899025,4.233351 9.631698,4.41108 14.966778,4.087085 1.794282,-0.102009 3.589015,-0.265036 5.341144,-0.758793 0.600307,-0.188511 0.952362,-0.285054 1.538676,-0.524634 1.054425,-0.430859 2.061985,-1.002141 3.07132,-1.556473 1.509641,-0.908251 3.028265,-1.824556 4.359857,-3.071029 1.255264,-1.198738 2.477534,-2.462179 3.373854,-4.061419 0.87545,-1.572085 1.66267,-3.227322 2.15193,-5.022433 0.44317,-1.72205 0.82025,-3.482813 0.77838,-5.296393 -0.0302,-1.495167 -0.0658,-3.000592 -0.3389,-4.467782 -0.2809,-1.338571 -0.65823,-2.643454 -1.16583,-3.88975 -0.52626,-1.269677 -1.13141,-2.491716 -1.78797,-3.675406 -0.64855,-1.124135 -1.34625,-2.209885 -2.06508,-3.27364 C 99.540035,46.3856 98.686568,45.27827 97.738905,44.276992 96.628663,43.03216 95.453776,41.871829 94.319084,40.65809 93.247219,39.504505 92.21317,38.304022 91.333128,36.940424 c -0.809027,-1.246386 -1.540584,-2.554203 -2.222359,-3.900947 -0.82485,-1.62082 -1.681552,-3.223167 -2.381523,-4.925549 -0.297196,-0.770288 -0.61391,-1.541275 -0.847167,-2.342714 -0.05364,-0.184287 -0.111455,-0.369216 -0.137112,-0.561562 -0.01963,-0.147197 -0.119457,-0.489508 0.0026,-0.446927 0.902253,0.314779 1.71931,0.898388 2.578965,1.347579 0.3947,0.79493 0.657053,1.674692 1.09133,2.445701 0.601212,1.189704 1.191873,2.395829 1.583917,3.705614 0.530693,1.936428 0.757859,3.958598 0.728882,5.993137 -0.01953,1.829331 -0.03555,3.659858 -0.123507,5.486826 l -2.496471,-1.524711 z"
             id="path4582"
             style="opacity:1;fill:#ff6600;fill-opacity:0.75175877;fill-rule:nonzero;stroke:none;stroke-width:0.17845111;stroke-linecap:butt;stroke-linejoin:miter;stroke-miterlimit:4;stroke-dasharray:none;stroke-opacity:1;paint-order:markers stroke fill"
             sodipodi:nodetypes="ccccscccccccccccccccccccccccccccccccccccccccccccccccccccccccc" />
          <g
             transform="matrix(1.2003283,0,0,1.7602355,-14.653406,-53.408769)"
             id="g4763">
            <g
               id="g5540"
               transform="matrix(1.1154406,0,0,1.1154406,-7.5339491,-6.5986989)">
              <path
                 sodipodi:nodetypes="cccccccccccccccccc"
                 inkscape:connector-curvature="0"
                 d="m 85.859542,59.639622 c 0.967121,-0.09634 1.937524,-0.15489 2.907628,-0.147052 0.400811,0.03388 0.806527,0.0542 1.195507,0.196027 1.877648,0.72332 4.459301,3.317428 3.247747,5.81637 -0.516095,0.810663 -1.17428,1.448443 -1.832253,2.058252 -0.643084,0.576281 -1.317807,1.088587 -2.019411,1.53842 -0.463879,0.31897 -0.96877,0.518708 -1.463133,0.743969 -0.512619,0.218494 -1.023703,0.447363 -1.546632,0.622877 -0.06822,0.02397 -0.136434,0.04795 -0.204651,0.07193 l -2.08086,-1.820902 v 0 c 0.07061,-0.02761 0.141232,-0.05525 0.211847,-0.08287 0.522617,-0.149576 1.027935,-0.379622 1.535229,-0.595871 0.489676,-0.21053 0.98574,-0.418065 1.449685,-0.70937 0.700549,-0.421892 1.368095,-0.92266 2.006343,-1.483753 0.637078,-0.582532 1.077666,-0.965876 1.57869,-1.743141 0.674728,-2.454331 -1.493713,-2.762356 -2.927461,-2.596414 z"
                 id="path4588"
                 style="opacity:1;fill:#ff6600;fill-opacity:0.75175877;fill-rule:nonzero;stroke:none;stroke-width:0.16712816;stroke-linecap:butt;stroke-linejoin:miter;stroke-miterlimit:4;stroke-dasharray:none;stroke-opacity:1;paint-order:markers stroke fill" />
              <path
                 sodipodi:nodetypes="ccccccccccccccccccccccccccccccccccccccccccc"
                 inkscape:connector-curvature="0"
                 d="m 82.228134,59.028125 c 0.523293,0.523871 1.075942,1.007617 1.601841,1.528651 0.407726,0.408941 0.794912,0.843274 1.18043,1.278994 0.333223,0.339455 0.602943,0.741916 0.838793,1.171762 0.237418,0.319569 0.274601,0.728792 0.379362,1.111483 0.10714,0.394104 0.14185,0.804624 0.162692,1.214394 0.06367,0.469195 -0.07518,0.857508 -0.250216,1.269626 -0.157817,0.330868 -0.372568,0.61273 -0.588043,0.89459 -0.185631,0.216606 -0.413309,0.379024 -0.623934,0.562253 -0.204403,0.211809 -0.430983,0.391577 -0.653728,0.576765 -0.222611,0.230725 -0.472818,0.410514 -0.73431,0.5765 -0.291159,0.188344 -0.581089,0.379472 -0.886811,0.535565 -0.191214,0.08588 -0.381544,0.12503 -0.566883,2.8e-4 -2.042857,-1.809049 -3.831882,-4.849659 -4.518489,-7.455314 -1.328744,-2.653464 -2.231511,-5.678695 -3.100592,-8.34444 l 1.401004,0.987784 c 0,0 1.647164,2.159002 2.477222,3.759317 0.414945,1.192923 0.665263,2.422193 1.088102,3.511595 0.167826,0.453127 0.37325,0.880105 0.501542,1.351008 0.171637,0.476257 0.254893,0.985414 0.351224,1.486511 0.947128,6.182045 -0.86423,9.520471 -5.718773,9.539096 -4.870213,-0.821114 -5.522896,-6.661013 -3.573675,-10.001802 1.925204,-3.139531 4.895459,-3.859832 7.641027,-5.517783 l 2.239277,1.025802 v 0 c -1.727024,1.037454 -3.472577,2.035573 -5.169624,3.136784 -1.704194,1.303628 -3.584871,2.366247 -4.003266,4.611709 -0.168286,6.215747 6.291803,5.527729 7.116145,2.373385 0.05367,-0.388963 0.16951,-1.221737 0.165777,-1.614732 -0.0041,-0.404565 -0.01064,-0.811181 -0.07616,-1.210167 -4.124326,-16.947131 -4.155775,-14.607315 1.742645,-1.442293 0.438866,0.974363 0.741393,1.789764 1.414265,1.086205 0.226464,-0.174437 0.45116,-0.357913 0.649679,-0.572822 0.202005,-0.161191 0.39757,-0.334763 0.593327,-0.503764 0.197738,-0.264947 0.411425,-0.514341 0.557568,-0.824495 0.157114,-0.373113 0.246911,-0.713408 0.184892,-1.133823 -0.02828,-0.392749 -0.07931,-0.781939 -0.187017,-1.157939 -0.0868,-0.372945 -0.196054,-0.722124 -0.412906,-1.027094 -0.254341,-0.402667 -0.525435,-0.784012 -0.853675,-1.113708 -0.384717,-0.430592 -0.772887,-0.857681 -1.182292,-1.257991 -0.53211,-0.516908 -1.084338,-1.006149 -1.608101,-1.534222 l 2.421673,1.122313 z"
                 id="path4590"
                 style="opacity:1;fill:#ff6600;fill-opacity:0.75175877;fill-rule:nonzero;stroke:none;stroke-width:0.16360168;stroke-linecap:butt;stroke-linejoin:miter;stroke-miterlimit:4;stroke-dasharray:none;stroke-opacity:1;paint-order:markers stroke fill" />
            </g>
            <path
               style="opacity:1;fill:#ff6600;fill-opacity:0.75175877;fill-rule:nonzero;stroke:none;stroke-width:0.1177205;stroke-linecap:butt;stroke-linejoin:miter;stroke-miterlimit:4;stroke-dasharray:none;stroke-opacity:1;paint-order:markers stroke fill"
               id="path4592"
               d="m 80.266683,75.811711 c 0.617009,0.198364 0.884619,0.263268 1.47893,0.01068 0.446052,-0.25704 0.805497,-0.566739 1.247844,-0.826644 0.397621,-0.22564 0.711961,-0.232292 1.210676,-0.183651 0.467902,0.05612 0.93237,0.169564 1.415711,0.125152 0.113314,-0.01042 0.222745,-0.0341 0.334119,-0.05115 0.828198,-0.219178 1.405909,-0.673191 1.997426,-1.087945 0.408395,-0.282145 0.207182,-0.143655 0.603561,-0.415519 0,0 2.117412,0.83486 2.117412,0.83486 v 0 c -0.398016,0.269611 -0.196473,0.132039 -0.604467,0.412817 -0.622805,0.433867 -1.223375,0.902345 -2.064267,1.164834 -0.708231,0.149042 -1.103225,0.12547 -1.804944,-0.01227 -0.435194,-0.05148 -0.70729,-0.134459 -1.086844,0.06497 -0.462105,0.255064 -0.824443,0.570836 -1.266247,0.839496 -0.587498,0.286241 -0.940039,0.350772 -1.627046,0.134823 0,0 -1.951864,-1.010432 -1.951864,-1.010432 z"
               inkscape:connector-curvature="0" />
          </g>
          <path
             inkscape:connector-curvature="0"
             d="m 79.655893,26.638545 c 0.641077,-0.319633 1.280927,-0.641615 1.925039,-0.955215 0.618041,-0.308562 1.25303,-0.581146 1.879495,-0.871905 0.617534,-0.275529 1.212521,-0.601271 1.729292,-1.03972 0.242867,-0.212328 0.130498,-0.106635 0.339011,-0.315052 0,0 2.402488,1.470421 2.402488,1.470421 v 0 c -0.2217,0.226516 -0.103788,0.115748 -0.354981,0.330976 -0.52728,0.463878 -1.137846,0.812884 -1.776957,1.101029 -0.62339,0.293843 -1.256149,0.56733 -1.875507,0.869307 -0.641483,0.312298 -1.285912,0.620371 -1.913472,0.959276 0,0 -2.354408,-1.549117 -2.354408,-1.549117 z"
             id="path4594"
             style="opacity:1;fill:#ff6600;fill-opacity:0.75175877;fill-rule:nonzero;stroke:none;stroke-width:0.16500001;stroke-linecap:butt;stroke-linejoin:miter;stroke-miterlimit:4;stroke-dasharray:none;stroke-opacity:1;paint-order:markers stroke fill" />
        </g>
      </g>
    </g>
  </g>
</svg>
